<?xml version="1.0" encoding="UTF-8"?>
<svg width="153px" height="152px" viewBox="0 0 153 152" version="1.1" xmlns="http://www.w3.org/2000/svg" xmlns:xlink="http://www.w3.org/1999/xlink">
    <!-- Generator: Sketch 52.6 (67491) - http://www.bohemiancoding.com/sketch -->
    <title>Untitled 2</title>
    <desc>Created with Sketch.</desc>
    <g id="Page-1" stroke="none" stroke-width="1" fill="none" fill-rule="evenodd">
        <path d="M141.084,0 L11.584,0 C5.368,0 0.334,5.035 0.334,11.25 L0.334,140.75 C0.334,146.966 5.368,152 11.584,152 L141.084,152 C147.299,152 152.334,146.966 152.334,140.75 L152.334,11.25 C152.334,5.035 147.299,0 141.084,0 Z" id="Path" fill="#3385FF"></path>
        <path d="M76.3046875,131.118815 C47.8075017,131.118815 24.7059439,108.017257 24.7059439,79.5200714 C24.7059439,51.0228856 47.8075017,27.9213278 76.3046875,27.9213278 C104.801873,27.9213278 127.903431,51.0228856 127.903431,79.5200714 C127.903431,108.017257 104.801873,131.118815 76.3046875,131.118815 Z" id="Path" fill="#FFFFFF"></path>
        <polygon id="Path" fill="#3385FF" fill-rule="nonzero" points="78.8591166 46.0478876 73.6640195 46.0478876 73.6640195 92.0764479 108.188211 92.0764479 108.188211 86.8813508 78.8591166 86.8813508"></polygon>
    </g>
</svg>