<?xml version="1.0" encoding="utf-8"?>
<!-- Generator: Adobe Illustrator 16.0.0, SVG Export Plug-In . SVG Version: 6.00 Build 0)  -->
<!DOCTYPE svg PUBLIC "-//W3C//DTD SVG 1.1//EN" "http://www.w3.org/Graphics/SVG/1.1/DTD/svg11.dtd">
<svg version="1.1" id="图层_3" xmlns="http://www.w3.org/2000/svg" xmlns:xlink="http://www.w3.org/1999/xlink" x="0px" y="0px"
	 width="192px" height="192px" viewBox="0 0 192 192" enable-background="new 0 0 192 192" xml:space="preserve">
<path fill="#4285F4" d="M161.288,20H31.294C25.054,20,20,25.055,20,31.292v129.996c0,6.24,5.054,11.294,11.292,11.294h129.995
	c6.241,0,11.294-5.054,11.294-11.294V31.292C172.582,25.055,167.528,20,161.288,20z"/>
<g>
	<path fill="#FFFFFF" d="M108.793,77.73c0,6.903-5.599,12.503-12.503,12.503c-6.905,0-12.504-5.6-12.504-12.503
		c0-6.904,5.599-12.504,12.504-12.504C103.194,65.226,108.793,70.826,108.793,77.73z"/>
	<path opacity="0.5" fill="#FFFFFF" enable-background="new    " d="M71.283,90.233c0,4.607-3.729,8.335-8.337,8.335
		s-8.336-3.727-8.336-8.335c0-4.607,3.729-8.336,8.336-8.336C67.553,81.898,71.283,85.626,71.283,90.233z"/>
	<path opacity="0.5" fill="#FFFFFF" enable-background="new    " d="M137.97,90.233c0,4.607-3.729,8.335-8.336,8.335
		c-4.61,0-8.338-3.727-8.338-8.335c0-4.607,3.728-8.336,8.338-8.336C134.241,81.898,137.97,85.626,137.97,90.233z"/>
	<path opacity="0.5" fill="#FFFFFF" enable-background="new    " d="M150.473,113.938c0-1.856-0.684-3.647-1.953-4.998
		c-2.884-3.078-9.036-6.204-18.886-6.204c-9.853,0-16.005,3.126-18.889,6.204c-1.27,1.351-1.952,3.142-1.952,4.998v5.471h41.679
		L150.473,113.938L150.473,113.938z"/>
	<path opacity="0.5" fill="#FFFFFF" enable-background="new    " d="M83.786,113.938c0-1.856-0.685-3.647-1.955-4.998
		c-2.881-3.078-9.035-6.204-18.886-6.204c-9.851,0-16.004,3.126-18.886,6.204c-1.27,1.351-1.954,3.142-1.954,4.998v5.471h41.68
		V113.938z"/>
	<path fill="#FFFFFF" d="M121.296,109.999c0-2.23-0.813-4.363-2.344-5.991c-3.467-3.696-10.843-9.606-22.662-9.606
		c-11.82,0-19.197,5.91-22.665,9.606c-1.531,1.61-2.344,3.761-2.344,5.991v9.41h50.015V109.999L121.296,109.999z"/>
</g>
</svg>
